<?xml version="1.0" encoding="UTF-8"?>
<svg version="1.1" xmlns="http://www.w3.org/2000/svg" width="1254" height="1254">
<path d="M0 0 C413.82 0 827.64 0 1254 0 C1254 413.82 1254 827.64 1254 1254 C840.18 1254 426.36 1254 0 1254 C0 840.18 0 426.36 0 0 Z " fill="#051031" transform="translate(0,0)"/>
<path d="M0 0 C1.87337233 0.00056486 3.74674511 0.0002461 5.62011719 -0.00088501 C10.68138631 -0.00145661 15.74255979 0.01026636 20.80380678 0.02426291 C26.10222159 0.03680254 31.40063881 0.03794331 36.69906616 0.04031372 C46.72147292 0.046519 56.74383582 0.06291692 66.76622331 0.0830127 C78.180984 0.10540136 89.59574684 0.11637259 101.01052403 0.12640357 C124.48148691 0.147284 147.95241092 0.18244143 171.42333984 0.22705078 C170.46309209 1.35409171 169.50189013 2.48031969 168.5402832 3.60620117 C168.00511581 4.23345596 167.46994843 4.86071075 166.91856384 5.50697327 C165.34832229 7.31334957 163.71216705 9.00710446 161.98583984 10.66455078 C159.70106244 12.90200253 157.5707535 15.19074122 155.51318359 17.63720703 C149.60935204 24.42899736 143.07198255 30.63294523 136.67529297 36.95458984 C130.99315977 42.57600283 125.36521618 48.15594545 120.18115234 54.24658203 C115.45549808 59.57081917 110.22889691 64.45410414 105.16162109 69.44970703 C99.44001232 75.12139688 99.44001232 75.12139688 94.04833984 81.10205078 C88.51607508 87.56180267 82.29489117 93.40901305 76.24804688 99.38183594 C70.71707773 104.85115157 65.24804225 110.30423147 60.19873047 116.22900391 C55.46438472 121.55709598 50.23509171 126.44799696 45.16162109 131.44970703 C39.48438141 137.07242795 39.48438141 137.07242795 34.14208984 143.00830078 C28.05717389 150.11335613 21.17532295 156.5265332 14.52978516 163.10009766 C6.50065738 170.92974483 6.50065738 170.92974483 -1.05322266 179.20751953 C-4.26870138 182.99582462 -7.7605065 186.47054237 -11.28759766 189.96533203 C-12.21297333 190.88244461 -12.21297333 190.88244461 -13.15704346 191.81808472 C-15.7314674 194.36490344 -18.30926753 196.9082311 -20.89208984 199.4465332 C-27.89225817 206.3340531 -34.66827392 213.17904703 -40.73754883 220.91601562 C-42.57256212 223.22190118 -44.5071555 225.38286045 -46.51416016 227.53955078 C-61.31640022 244.06774374 -72.35328922 264.35623183 -83.77392578 283.24658203 C-92.75913223 298.10186376 -101.82433111 312.90607161 -110.98095703 327.65625 C-113.61965144 331.90739016 -116.25484161 336.16069795 -118.88916016 340.41455078 C-119.41775635 341.26807129 -119.94635254 342.1215918 -120.4909668 343.00097656 C-125.55314265 351.17990606 -130.59220571 359.37301002 -135.63012695 367.56689453 C-139.80686957 374.35805226 -143.99840842 381.13977649 -148.20166016 387.91455078 C-152.69724097 395.16298108 -157.1487946 402.43707144 -161.57666016 409.72705078 C-167.65713993 419.73746362 -173.80363974 429.70536494 -179.98095703 439.65625 C-182.61965147 443.90739021 -185.25480009 448.16072362 -187.88916016 452.41455078 C-188.41920654 453.27024658 -188.94925293 454.12594238 -189.49536133 455.00756836 C-193.14949559 460.91065171 -196.78870798 466.82277921 -200.4230957 472.73803711 C-206.87541164 483.23926089 -213.36511498 493.71524762 -219.9140625 504.15649414 C-223.24502458 509.47381379 -226.55224609 514.80448021 -229.82666016 520.15673828 C-230.18256226 520.73788391 -230.53846436 521.31902954 -230.90515137 521.91778564 C-232.619436 524.7176277 -234.33034269 527.51937499 -236.03564453 530.32470703 C-239.99306527 536.79601266 -244.14543546 543.07010645 -248.57666016 549.22705078 C-251.00492278 546.89502639 -253.08749638 544.70718615 -254.81103516 541.81298828 C-255.21153076 541.14847656 -255.61202637 540.48396484 -256.0246582 539.79931641 C-256.45431885 539.07421875 -256.88397949 538.34912109 -257.32666016 537.60205078 C-258.30646032 535.97404405 -259.28697199 534.34646538 -260.26806641 532.71923828 C-260.79803223 531.83719727 -261.32799805 530.95515625 -261.87402344 530.04638672 C-264.97036258 524.91926822 -268.12058756 519.82529293 -271.26416016 514.72705078 C-272.63665955 512.49794788 -274.00905398 510.26878034 -275.38134766 508.03955078 C-276.77975044 505.76869606 -278.17817947 503.49785753 -279.57666016 501.22705078 C-295.21940695 475.82687518 -295.21940695 475.82687518 -302.34863281 464.14233398 C-307.76920066 455.26395702 -313.22785753 446.40896226 -318.68212891 437.55126953 C-319.3234375 436.50970703 -319.96474609 435.46814453 -320.62548828 434.39501953 C-321.93611124 432.26706114 -323.24731782 430.1394621 -324.55908203 428.01220703 C-329.30492937 420.31122308 -334.01226914 412.58751299 -338.70166016 404.85205078 C-340.19361357 402.39227332 -341.68587998 399.93268584 -343.17822266 397.47314453 C-343.54896912 396.86205338 -343.91971558 396.25096222 -344.30169678 395.62135315 C-347.88603753 389.71462836 -351.48112157 383.81446445 -355.07666016 377.91455078 C-358.78801953 371.82438037 -362.48445458 365.72637981 -366.13916016 359.60205078 C-369.55818239 353.87677142 -373.05794666 348.20402929 -376.57666016 342.53955078 C-381.77244975 334.17378912 -386.9083205 325.77288015 -392.01416016 317.35205078 C-392.37465454 316.75759155 -392.73514893 316.16313232 -393.10656738 315.55065918 C-394.90871784 312.57863168 -396.71034878 309.60628967 -398.51171875 306.63378906 C-406.47102802 293.50252853 -414.45490441 280.38800021 -422.54907227 267.33935547 C-426.84405445 260.41525321 -431.12022192 253.47973826 -435.38916016 246.53955078 C-436.05842529 245.45158203 -436.72769043 244.36361328 -437.41723633 243.24267578 C-440.15790438 238.78683771 -442.89803111 234.33066685 -445.63818359 229.87451172 C-447.67992852 226.55437258 -449.72194931 223.23440336 -451.76416016 219.91455078 C-452.43020264 218.83173828 -453.09624512 217.74892578 -453.7824707 216.63330078 C-457.90927018 209.92731506 -462.05087106 203.23070659 -466.20166016 196.53955078 C-470.697191 189.29108805 -475.14871488 182.01698298 -479.57666016 174.72705078 C-487.98823531 160.88196193 -496.51411621 147.1100955 -505.11572266 133.38232422 C-512.54774655 121.51937661 -519.86267527 109.59003131 -527.12255859 97.62109375 C-531.15823786 90.97672322 -535.24740566 84.36536443 -539.35009766 77.76220703 C-545.5848117 67.72100485 -551.76395904 57.64789838 -557.88916016 47.53955078 C-563.37084703 38.49586729 -568.86321985 29.45896526 -574.39633179 20.44662476 C-575.42820665 18.76526641 -576.45814465 17.08271986 -577.48803711 15.40014648 C-578.11282959 14.3839624 -578.73762207 13.36777832 -579.38134766 12.32080078 C-579.92774902 11.43070312 -580.47415039 10.54060547 -581.03710938 9.62353516 C-582.53583538 7.21319642 -582.53583538 7.21319642 -584.27636719 5.03369141 C-585.57666016 3.22705078 -585.57666016 3.22705078 -585.57666016 1.22705078 C-568.88586377 1.13325964 -552.19515397 1.06290234 -535.50415707 1.01980209 C-527.75276269 0.99925047 -520.00153285 0.97127312 -512.25024414 0.92529297 C-505.48758545 0.88519672 -498.72504603 0.85956431 -491.96227175 0.8506968 C-488.38739111 0.84552021 -484.81285142 0.83351187 -481.23808098 0.80413055 C-457.25800648 0.61480295 -437.72963404 2.10942243 -419.46337891 19.15283203 C-412.7231884 26.0628744 -407.60017737 34.09727029 -402.57666016 42.28955078 C-401.25387796 44.42635278 -399.93095741 46.56306914 -398.60791016 48.69970703 C-397.93888672 49.78396973 -397.26986328 50.86823242 -396.58056641 51.98535156 C-393.43230894 57.07825637 -390.25369282 62.15206683 -387.07666016 67.22705078 C-385.82649904 69.22695007 -384.57649941 71.22695032 -383.32666016 73.22705078 C-382.70791016 74.21705078 -382.08916016 75.20705078 -381.45166016 76.22705078 C-375.82666016 85.22705078 -375.82666016 85.22705078 -373.95092773 88.22827148 C-372.70342768 90.22423907 -371.45586928 92.22017017 -370.20825195 94.21606445 C-367.04451833 99.27745994 -363.88186455 104.33952472 -360.72119141 109.40283203 C-353.52217975 120.93313476 -346.29779065 132.44660806 -339.02832031 143.93261719 C-336.5419248 147.8625104 -334.05956282 151.79495027 -331.57666016 155.72705078 C-330.57406219 157.31429428 -329.57145803 158.90153387 -328.56884766 160.48876953 C-326.59386038 163.61572564 -324.6199773 166.74337461 -322.64697266 169.87158203 C-313.42900026 184.48342365 -304.19368433 199.0851725 -294.82666016 213.60205078 C-291.74186721 218.38860219 -288.70971495 223.20467577 -285.70166016 228.03955078 C-281.85268485 234.22349178 -277.92532895 240.3518892 -273.95727539 246.45996094 C-270.19434207 252.25802328 -266.47309448 258.0818198 -262.76416016 263.91455078 C-262.18408203 264.82495117 -261.60400391 265.73535156 -261.00634766 266.67333984 C-257.86418286 271.60930091 -254.74194841 276.55675706 -251.64306641 281.52001953 C-251.00409424 282.53813721 -250.36512207 283.55625488 -249.70678711 284.60522461 C-248.47159747 286.5740537 -247.24208118 288.54645568 -246.01879883 290.52270508 C-245.46554932 291.40224854 -244.9122998 292.28179199 -244.34228516 293.18798828 C-243.8553418 293.96964355 -243.36839844 294.75129883 -242.86669922 295.55664062 C-242.44098633 296.10787598 -242.01527344 296.65911133 -241.57666016 297.22705078 C-240.91666016 297.22705078 -240.25666016 297.22705078 -239.57666016 297.22705078 C-237.8749678 294.78477146 -237.8749678 294.78477146 -236.11962891 291.62158203 C-235.78030838 291.03468094 -235.44098785 290.44777985 -235.09138489 289.84309387 C-234.35882283 288.57478819 -233.62951375 287.30459934 -232.90307617 286.03277588 C-230.99084627 282.68616859 -229.0544471 279.35360196 -227.11962891 276.02001953 C-226.73257782 275.35192261 -226.34552673 274.68382568 -225.94674683 273.9954834 C-222.59129485 268.21740129 -219.11750226 262.51846708 -215.57666016 256.85205078 C-215.04355225 255.99788574 -214.51044434 255.1437207 -213.96118164 254.26367188 C-212.95096567 252.64510781 -211.94063703 251.02661407 -210.93017578 249.40820312 C-208.67310549 245.77099787 -206.47892798 242.09753553 -204.28710938 238.4206543 C-201.17301737 233.20376172 -198.01535033 228.01401683 -194.85473633 222.82519531 C-186.86885288 209.71294066 -178.98162597 196.5454463 -171.17285156 183.3269043 C-167.0214914 176.30498025 -162.81575528 169.32265942 -158.52661133 162.38354492 C-155.24762797 157.07567266 -152.00481391 151.74588604 -148.76416016 146.41455078 C-148.40793579 145.8286618 -148.05171143 145.24277283 -147.68469238 144.63912964 C-141.66332825 134.72961568 -135.73114535 124.76904365 -129.82666016 114.78955078 C-124.12388761 105.15225098 -118.37020083 95.55599551 -112.44042969 86.0559082 C-107.0698296 77.44672526 -101.81983417 68.76528784 -96.57421875 60.07958984 C-94.58370773 56.79001346 -92.58431271 53.50619135 -90.57666016 50.22705078 C-89.96024658 49.2199707 -89.34383301 48.21289062 -88.70874023 47.17529297 C-85.48237108 41.99446752 -82.21735415 37.16003215 -78.01416016 32.72705078 C-77.25389526 31.91941284 -77.25389526 31.91941284 -76.47827148 31.09545898 C-55.42781618 9.30200876 -29.97789783 -0.12691718 0 0 Z " fill="#21A5EA" transform="translate(785.57666015625,360.77294921875)"/>
<path d="M0 0 C1.62765983 0.00113131 3.25532169 0.00048911 4.88298035 -0.00177002 C9.25616258 -0.00290706 13.62889652 0.02043646 18.00197554 0.04852581 C22.5889906 0.07370989 27.17601851 0.07589476 31.76309204 0.08062744 C40.42901098 0.09300764 49.09472554 0.12576141 57.76055491 0.1660254 C67.634907 0.21089833 77.50926939 0.232769 87.38369823 0.25280714 C107.67729915 0.29449902 127.97071672 0.36475359 148.26416016 0.45410156 C146.38399795 4.60329154 143.56334493 7.16133046 140.20166016 10.14160156 C139.01796997 11.2103672 137.83568459 12.28069067 136.65478516 13.35253906 C136.07535156 13.8781543 135.49591797 14.40376953 134.89892578 14.9453125 C132.68429951 16.9892776 130.56388741 19.11744726 128.45166016 21.26660156 C125.90861313 23.84637129 123.33888709 26.29895341 120.57666016 28.64160156 C116.59856599 32.04570219 112.94416426 35.73537585 109.26416016 39.45410156 C105.11908888 43.64255969 100.95499641 47.68080887 96.45166016 51.48535156 C92.61426503 54.93900717 89.0384081 58.66118469 85.40795898 62.32983398 C81.76959987 65.99172648 78.06120456 69.48091046 74.11962891 72.81738281 C71.09453938 75.48583021 68.3146465 78.39607431 65.48291016 81.26660156 C62.85644893 83.85607038 60.09439557 86.24247121 57.29541016 88.64160156 C55.02777443 90.66503036 52.89839065 92.79063503 50.76416016 94.95410156 C48.05612451 97.69910698 45.32246767 100.32681067 42.38916016 102.82910156 C39.01858205 105.71625014 35.8791318 108.79658293 32.76416016 111.95410156 C29.75185236 115.00727499 26.7286709 117.99482588 23.45166016 120.76660156 C18.84446386 124.68984295 14.66377477 129.0291979 10.41088867 133.3269043 C6.75992969 137.0014909 3.04019147 140.50864 -0.91552734 143.85644531 C-4.35869011 146.87844868 -7.53637939 150.17805827 -10.73583984 153.45410156 C4.04815123 170.92729087 20.54708123 186.83193772 36.76416016 202.95410156 C40.86890052 207.03502765 44.97185436 211.11772101 49.07063293 215.20463562 C50.68754653 216.81516699 52.30748138 218.42261344 53.9276123 220.02990723 C62.03265969 228.09490587 62.03265969 228.09490587 65.69189453 232.38183594 C70.22305208 237.67489048 75.22030597 242.52074376 80.1612854 247.4263916 C81.98928194 249.24145722 83.81398972 251.05977457 85.63793945 252.87890625 C89.51052437 256.74014342 93.3870375 260.59742152 97.26416016 264.45410156 C101.7621062 268.92833162 106.25836363 273.40423225 110.75039673 277.88439941 C112.5357156 279.66330411 114.32405154 281.43913552 116.11254883 283.21484375 C121.12527807 288.20517226 126.04553823 293.21602852 130.63973999 298.60037231 C133.77340658 302.17639872 137.16818893 305.50036312 140.53369141 308.85644531 C141.295905 309.61961563 142.05811859 310.38278595 142.84342957 311.16908264 C144.43972083 312.76604945 146.03725569 314.36177409 147.63598633 315.95629883 C150.09068838 318.40559892 152.53994911 320.8602506 154.98876953 323.31542969 C156.54508923 324.87108936 158.10171867 326.42643923 159.65869141 327.98144531 C160.75864189 329.08443214 160.75864189 329.08443214 161.8808136 330.20970154 C162.55879501 330.88453079 163.23677643 331.55936005 163.93530273 332.25463867 C164.53151932 332.85005966 165.1277359 333.44548065 165.74201965 334.0589447 C167.23109242 335.55201501 167.23109242 335.55201501 169.26416016 336.45410156 C169.26416016 337.11410156 169.26416016 337.77410156 169.26416016 338.45410156 C149.2006417 338.52440171 129.13714849 338.57719214 109.0735321 338.60953808 C99.75617335 338.62496075 90.43889144 338.64596153 81.12158203 338.68041992 C72.99395981 338.71046396 64.86639329 338.72970993 56.73871708 338.73636705 C52.44120952 338.74025407 48.1438612 338.74929137 43.84640503 338.77129173 C39.78838107 338.79189491 35.73057954 338.79788812 31.67250824 338.79342461 C30.1956638 338.7942393 28.71881068 338.8000614 27.24201202 338.81171799 C2.45064085 338.99753841 -19.19864497 331.96195631 -37.37255859 314.82910156 C-44.20439865 307.96338461 -50.44173321 300.66999819 -56.52099609 293.13769531 C-59.40182491 289.64716727 -62.44518387 286.32136088 -65.49365234 282.97753906 C-67.78099888 280.40327798 -69.95132255 277.76120667 -72.11083984 275.07910156 C-75.79155831 270.52629649 -79.66232633 266.21992746 -83.6472168 261.93725586 C-87.44968999 257.82649199 -90.97847283 253.53143633 -94.48974609 249.16894531 C-97.61868805 245.38700677 -100.95101429 241.80654286 -104.27490234 238.19628906 C-106.64623879 235.55394273 -108.88836982 232.8471599 -111.11083984 230.07910156 C-114.49969756 225.87596002 -118.04821421 221.89204999 -121.73583984 217.95410156 C-126.21497546 213.170914 -130.42035197 208.24595469 -134.52490234 203.13378906 C-136.84518935 200.32156842 -139.26655119 197.63612894 -141.73583984 194.95410156 C-145.87765497 190.45268698 -149.77653965 185.80605519 -153.61865234 181.04785156 C-156.56707709 177.43575925 -159.63415777 173.9347673 -162.73583984 170.45410156 C-161.37392104 166.80483133 -159.72660615 163.5690017 -157.71630859 160.23535156 C-157.11286621 159.23149414 -156.50942383 158.22763672 -155.88769531 157.19335938 C-155.23945801 156.1244043 -154.5912207 155.05544922 -153.92333984 153.95410156 C-153.25189941 152.84131836 -152.58045898 151.72853516 -151.88867188 150.58203125 C-146.10436259 141.00683463 -140.22781619 131.48920805 -134.31542969 121.99267578 C-131.67835202 117.75460259 -129.05094836 113.51054962 -126.42333984 109.26660156 C-125.89683838 108.41727051 -125.37033691 107.56793945 -124.82788086 106.69287109 C-121.77487058 101.76400283 -118.73698115 96.82625456 -115.71240234 91.87988281 C-111.74283997 85.39051129 -107.75325153 78.91396711 -103.73583984 72.45410156 C-103.24986328 71.67212402 -102.76388672 70.89014648 -102.26318359 70.08447266 C-96.34564474 60.64511497 -89.58626029 52.28972537 -82.13378906 44.01513672 C-80.42499671 42.10699521 -78.76887848 40.15637248 -77.11083984 38.20410156 C-56.42848436 14.77764977 -31.77974069 -0.31393046 0 0 Z " fill="#5163EE" transform="translate(852.73583984375,562.5458984375)"/>
<path d="M0 0 C1.91143943 0.02011359 3.82289951 0.03835569 5.734375 0.0546875 C10.36510383 0.09825708 14.9948168 0.16701037 19.625 0.25 C19.295 0.91 18.965 1.57 18.625 2.25 C17.79476318 2.23952637 16.96452637 2.22905273 16.10913086 2.21826172 C-6.92563589 1.27350113 -6.92563589 1.27350113 -29.375 5.25 C-30.035 5.91 -30.695 6.57 -31.375 7.25 C-33.11509849 7.64998908 -34.86790931 7.99537802 -36.625 8.3125 C-51.30954332 11.88299683 -61.9489272 22.95232712 -72.375 33.25 C-73.49731425 34.3451357 -74.61970709 35.44019086 -75.7421875 36.53515625 C-81.19933741 41.89452875 -86.49025452 47.35820984 -91.375 53.25 C-92.04273438 54.04019531 -92.71046875 54.83039062 -93.3984375 55.64453125 C-97.24444447 60.29834266 -100.49399835 64.90001674 -103.3046875 70.2421875 C-104.80079605 73.0487561 -106.58716989 75.62083808 -108.375 78.25 C-112.70992562 84.89905885 -116.83100324 91.64802431 -120.796875 98.5234375 C-123.3253033 102.89186065 -125.92349715 107.09034801 -128.875 111.1875 C-131.40801386 114.77285156 -133.44446368 118.30499099 -135.375 122.25 C-136.86877872 124.58012837 -138.41417804 126.87021079 -139.96875 129.16015625 C-140.97970609 130.66254933 -141.94331975 132.19719959 -142.875 133.75 C-144.28465252 136.09942087 -145.77976975 138.35457165 -147.3125 140.625 C-149.85610621 144.41842753 -152.15726005 148.25806809 -154.375 152.25 C-157.6151282 157.97422649 -160.97586854 163.61877222 -164.375 169.25 C-163.97667969 169.78109375 -163.57835937 170.3121875 -163.16796875 170.859375 C-160.5703125 174.32291667 -157.97265625 177.78645833 -155.375 181.25 C-156.365 181.25 -157.355 181.25 -158.375 181.25 C-160.63671875 178.84375 -160.63671875 178.84375 -163.0625 175.75 C-164.27486328 174.21859375 -164.27486328 174.21859375 -165.51171875 172.65625 C-166.12660156 171.8621875 -166.74148438 171.068125 -167.375 170.25 C-166.0130812 166.60072976 -164.36576631 163.36490014 -162.35546875 160.03125 C-161.75202637 159.02739258 -161.14858398 158.02353516 -160.52685547 156.98925781 C-159.87861816 155.92030273 -159.23038086 154.85134766 -158.5625 153.75 C-157.89105957 152.6372168 -157.21961914 151.52443359 -156.52783203 150.37792969 C-150.74352275 140.80273307 -144.86697635 131.28510649 -138.95458984 121.78857422 C-136.31751218 117.55050103 -133.69010851 113.30644805 -131.0625 109.0625 C-130.53599854 108.21316895 -130.00949707 107.36383789 -129.46704102 106.48876953 C-126.41403074 101.55990127 -123.3761413 96.622153 -120.3515625 91.67578125 C-116.38200013 85.18640972 -112.39241169 78.70986555 -108.375 72.25 C-107.88902344 71.46802246 -107.40304687 70.68604492 -106.90234375 69.88037109 C-100.9848049 60.44101341 -94.22542044 52.0856238 -86.77294922 43.81103516 C-85.06415687 41.90289365 -83.40803864 39.95227092 -81.75 38 C-68.82928568 23.36498943 -53.9919022 10.81982695 -35.375 4.25 C-33.97725342 3.73058838 -33.97725342 3.73058838 -32.55126953 3.20068359 C-21.68252634 -0.40883121 -11.33557656 -0.20940591 0 0 Z " fill="#2994E9" transform="translate(857.375,562.75)"/>
<path d="M0 0 C16.69079639 -0.09379114 33.38150619 -0.16414844 50.07250309 -0.20724869 C57.82389747 -0.22780031 65.57512731 -0.25577766 73.32641602 -0.30175781 C80.08907471 -0.34185406 86.85161413 -0.36748647 93.61438841 -0.37635398 C97.18926905 -0.38153057 100.76380874 -0.39353891 104.33857918 -0.42292023 C128.13142652 -0.61076963 148.47092009 0.69315496 166.30078125 18.1875 C169.87506376 21.91178858 173.0463534 25.77110208 176 30 C176.43183594 30.60070312 176.86367188 31.20140625 177.30859375 31.8203125 C180 35.6758218 180 35.6758218 180 38 C179.34 38 178.68 38 178 38 C176.91408387 36.41775101 175.9075854 34.78079588 174.9375 33.125 C168.27429591 22.37521545 160.50266982 14.38422843 149 9 C148.05125 8.484375 147.1025 7.96875 146.125 7.4375 C136.9051987 3.1963914 127.07078646 2.85051608 117.08276367 2.87060547 C115.46672493 2.86797699 115.46672493 2.86797699 113.81803894 2.86529541 C110.267999 2.86090602 106.71800917 2.86380528 103.16796875 2.8671875 C100.69086192 2.86651348 98.21375516 2.86554263 95.73664856 2.86428833 C90.54765187 2.86281518 85.35867242 2.86495311 80.16967773 2.86962891 C73.53563401 2.875317 66.90163084 2.87205057 60.26758862 2.86605644 C55.15191852 2.8624329 50.03625793 2.86359781 44.92058754 2.86618423 C42.47548734 2.86684901 40.03038627 2.86604087 37.58528709 2.86370468 C34.15864164 2.86114969 30.73206061 2.86505912 27.30541992 2.87060547 C26.30508728 2.86858124 25.30475464 2.86655701 24.27410889 2.86447144 C18.1257696 2.88279802 12.10500611 3.26946021 6 4 C6.77112657 7.3991331 7.96420902 9.84119678 9.8125 12.8125 C10.34617188 13.68519531 10.87984375 14.55789063 11.4296875 15.45703125 C12.39302067 17.01705585 13.35652276 18.57697618 14.3203125 20.13671875 C15.27209942 21.7241396 16.14500902 23.35841732 17 25 C16.67 25.66 16.34 26.32 16 27 C15.62190186 26.38479492 15.24380371 25.76958984 14.85424805 25.13574219 C13.13400299 22.33925612 11.41078432 19.54461411 9.6875 16.75 C9.09259766 15.78191406 8.49769531 14.81382812 7.88476562 13.81640625 C7.30791016 12.88183594 6.73105469 11.94726562 6.13671875 10.984375 C5.34334106 9.69611816 5.34334106 9.69611816 4.53393555 8.38183594 C3.03968284 5.98534069 3.03968284 5.98534069 1.30395508 3.81347656 C0 2 0 2 0 0 Z " fill="#01CBCF" transform="translate(200,362)"/>
<path d="M0 0 C4.9701384 4.16212806 9.62433947 8.50030676 14.17578125 13.11328125 C14.82701462 13.76830124 15.47824799 14.42332123 16.1492157 15.09819031 C18.20611227 17.16719381 20.25970113 19.23943134 22.3125 21.3125 C25.03490678 24.06144527 27.76057417 26.80709645 30.48828125 29.55078125 C31.11221268 30.18301102 31.7361441 30.81524078 32.37898254 31.46662903 C35.39435439 34.61875403 35.39435439 34.61875403 39 37 C39 37.66 39 38.32 39 39 C-12.48 39 -63.96 39 -117 39 C-117 38.34 -117 37.68 -117 37 C-110.42123042 35.79832502 -103.93525808 35.87342012 -97.26269531 35.90234375 C-95.31189585 35.90458536 -93.36109639 35.90682668 -91.41029692 35.90905762 C-89.32360384 35.9124179 -87.23693099 35.91826864 -85.15024567 35.92483521 C-80.78642515 35.93842386 -76.42261474 35.94426613 -72.05877686 35.94897461 C-62.00323517 35.96099215 -51.94772013 35.98301252 -41.89219666 36.00520325 C-32.6823443 36.02543497 -23.47250116 36.04349797 -14.26263118 36.05341816 C-9.93452319 36.05836898 -5.60646304 36.06818158 -1.2783742 36.08184814 C0.77205044 36.08754712 2.82246326 36.09089854 4.87289429 36.0932312 C7.35935187 36.09607264 9.84580935 36.10246007 12.33224487 36.11331177 C19.27795828 36.11375064 26.09589041 35.7661716 33 35 C32.54145882 34.54629217 32.08291763 34.09258434 31.61048126 33.62512779 C27.36771551 29.42658528 23.13248013 25.22053553 18.90087891 21.01074219 C17.30208228 19.42202543 15.70149831 17.83510531 14.09912109 16.25 C11.80097749 13.97601746 9.50926378 11.69572688 7.21875 9.4140625 C6.49691528 8.70255035 5.77508057 7.99103821 5.03137207 7.25796509 C4.37068726 6.59743134 3.71000244 5.93689758 3.02929688 5.25634766 C2.14993469 4.38364731 2.14993469 4.38364731 1.25280762 3.49331665 C0 2 0 2 0 0 Z " fill="#6038DD" transform="translate(983,862)"/>
<path d="M0 0 C1.00608307 -0.0071553 2.01216614 -0.01431061 3.04873657 -0.02168274 C4.15203308 -0.02437164 5.25532959 -0.02706055 6.39205933 -0.02983093 C8.13665939 -0.03968773 8.13665939 -0.03968773 9.91650391 -0.04974365 C13.77928736 -0.0695062 17.6420317 -0.08115139 21.50485229 -0.09111023 C22.84020889 -0.09516038 24.17556529 -0.09927738 25.51092148 -0.10346031 C31.79697066 -0.12252492 38.08300813 -0.13674344 44.36908066 -0.14507228 C51.58760499 -0.15479712 58.80581877 -0.18098527 66.02423394 -0.22157317 C71.62366692 -0.25195749 77.22301218 -0.26656274 82.82252586 -0.26985329 C86.15603584 -0.27218206 89.48895433 -0.28289036 92.82242203 -0.30631447 C122.73380244 -0.50328336 122.73380244 -0.50328336 134.12203979 4.14717102 C134.45203979 5.13717102 134.78203979 6.12717102 135.12203979 7.14717102 C134.26723715 6.93562472 133.4124345 6.72407843 132.53172874 6.50612164 C124.10396793 4.54230954 116.35369339 3.70404291 107.69088745 3.71479797 C105.80050499 3.6995105 105.80050499 3.6995105 103.87193298 3.68391418 C100.46582182 3.6566916 97.05987744 3.6471079 93.65367174 3.64106011 C90.07554739 3.63158436 86.49754332 3.60537478 82.91949463 3.58105469 C76.16616016 3.53763613 69.41284935 3.50893876 62.65941846 3.4857313 C54.96146752 3.45854626 47.26363905 3.41464387 39.56577611 3.36944258 C23.75126062 3.27694996 7.93672197 3.20510862 -7.87796021 3.14717102 C-7.87796021 2.48717102 -7.87796021 1.82717102 -7.87796021 1.14717102 C-4.94916593 0.17090626 -3.05104778 0.01490424 0 0 Z " fill="#011A31" transform="translate(208.87796020507813,358.8528289794922)"/>
<path d="M0 0 C3.33964252 3.04540089 5.42877227 6.1872701 7.625 10.125 C9.94186904 14.34359158 9.94186904 14.34359158 13 18 C14.19686576 20.02411122 15.35761711 22.06964718 16.5 24.125 C20.07241428 30.50334648 23.88966643 36.69944982 27.84960938 42.84423828 C31 47.78867004 31 47.78867004 31 50 C31.66 50 32.32 50 33 50 C33.495 52.475 33.495 52.475 34 55 C34.99 55.33 35.98 55.66 37 56 C37.72904086 57.64034193 38.38655243 59.31301918 39 61 C39.53625 61.886875 40.0725 62.77375 40.625 63.6875 C42 66 42 66 42 68 C42.99 68.33 43.98 68.66 45 69 C46.38671875 71.21484375 46.38671875 71.21484375 47.6875 73.9375 C48.12449219 74.83339844 48.56148438 75.72929688 49.01171875 76.65234375 C50 79 50 79 50 81 C50.66 81 51.32 81 52 81 C52 81.99 52 82.98 52 84 C52.99 84.495 52.99 84.495 54 85 C55.04644066 86.63790712 56.0398183 88.31008021 57 90 C57.474375 90.78375 57.94875 91.5675 58.4375 92.375 C58.953125 93.24125 59.46875 94.1075 60 95 C60.35578125 95.59425781 60.7115625 96.18851563 61.078125 96.80078125 C64 101.77002641 64 101.77002641 64 104 C64.66 104 65.32 104 66 104 C66.33 105.65 66.66 107.3 67 109 C67.66 109 68.32 109 69 109 C69.83848804 110.45537568 70.67063934 111.91440373 71.5 113.375 C71.9640625 114.18710937 72.428125 114.99921875 72.90625 115.8359375 C74 118 74 118 74 120 C74.66 120.33 75.32 120.66 76 121 C77.02857382 122.57294436 78.00018399 124.18352586 78.9375 125.8125 C80.3937743 128.3339775 81.81428837 130.75423237 83.5703125 133.078125 C84.98199812 134.97580075 85.94893151 136.79489448 86.9375 138.9375 C88.19879999 141.55712306 89.32373241 143.39772839 91.1875 145.6875 C93.15169156 148.19353751 93.64257637 149.87254323 94 153 C94.66 153 95.32 153 96 153 C99 158.75 99 158.75 99 161 C99.66 161 100.32 161 101 161 C101 161.99 101 162.98 101 164 C101.66 164.33 102.32 164.66 103 165 C105 168 105 168 105 171 C105.66 171 106.32 171 107 171 C107.9765625 172.72526042 108.953125 174.45052083 109.9296875 176.17578125 C110.89428581 177.81982289 111.94267059 179.41400588 113 181 C113 181.99 113 182.98 113 184 C113.66 184 114.32 184 115 184 C115 184.99 115 185.98 115 187 C115.66 187 116.32 187 117 187 C117 187.99 117 188.98 117 190 C117.66 190 118.32 190 119 190 C118.67 191.32 118.34 192.64 118 194 C109.94907442 181.18819054 102.01896324 168.30274065 94.09667969 155.41113281 C90.73371562 149.93915827 87.36659815 144.46973912 84 139 C79.96388597 132.44199489 75.92825813 125.88369249 71.89453125 119.32421875 C70.53390689 117.11194674 69.17323014 114.89970695 67.8125 112.6875 C67.14621582 111.60428467 66.47993164 110.52106934 65.79345703 109.4050293 C61.66687794 102.69946517 57.52553895 96.00325257 53.375 89.3125 C48.87946916 82.06403727 44.42794528 74.7899322 40 67.5 C29.57692327 50.34406657 18.96031069 33.31010356 8.3125 16.29296875 C7.75046875 15.3911084 7.1884375 14.48924805 6.609375 13.56005859 C5.57107109 11.90841193 4.5198556 10.26477888 3.453125 8.63134766 C2.76476562 7.57052979 2.76476562 7.57052979 2.0625 6.48828125 C1.66160156 5.88153564 1.26070313 5.27479004 0.84765625 4.6496582 C0 3 0 3 0 0 Z " fill="#01D7E4" transform="translate(266,468)"/>
<path d="M0 0 C0.99 0.495 0.99 0.495 2 1 C-6.00491367 14.02056254 -14.01451718 27.03797991 -22.06762695 40.02880859 C-25.67105978 45.84477894 -29.25836034 51.67048996 -32.83984375 57.5 C-39.29041251 67.9991983 -45.77877151 78.47291911 -52.32641602 88.91186523 C-55.71974919 94.32869206 -59.08794245 99.7598064 -62.42578125 105.2109375 C-62.97738419 106.1110556 -62.97738419 106.1110556 -63.54013062 107.02935791 C-65.32999629 109.95089112 -67.11666347 112.87430624 -68.8984375 115.80078125 C-69.53652344 116.84363281 -70.17460938 117.88648438 -70.83203125 118.9609375 C-71.39639893 119.88696777 -71.9607666 120.81299805 -72.54223633 121.76708984 C-74 124 -74 124 -76 126 C-76.125 121.25 -76.125 121.25 -75 119 C-74.34 119 -73.68 119 -73 119 C-72.62875 118.01 -72.62875 118.01 -72.25 117 C-70.68182955 113.23639093 -68.85494954 109.6288576 -67 106 C-66.34 106 -65.68 106 -65 106 C-65 105.01 -65 104.02 -65 103 C-64.34 103 -63.68 103 -63 103 C-62.77828125 102.35289062 -62.5565625 101.70578125 -62.328125 101.0390625 C-60.51904844 96.89946967 -58.14414712 93.19845893 -55.75 89.375 C-51.60820132 82.6887308 -47.64105529 75.97484852 -44 69 C-43.34 69 -42.68 69 -42 69 C-41.72833008 68.27329102 -41.45666016 67.54658203 -41.17675781 66.79785156 C-40.03512705 64.08351785 -38.7268277 61.73098846 -37.171875 59.234375 C-36.61886719 58.34363281 -36.06585937 57.45289063 -35.49609375 56.53515625 C-34.91988281 55.61605469 -34.34367188 54.69695313 -33.75 53.75 C-33.18925781 52.84636719 -32.62851562 51.94273437 -32.05078125 51.01171875 C-29.37490552 46.71672191 -26.65731294 42.4613641 -23.828125 38.265625 C-21.77598249 35.21196966 -19.87933293 32.11816031 -18.0859375 28.90283203 C-15.67495632 24.67819459 -13.0648591 20.569773 -10.5 16.4375 C-9.93152344 15.51775391 -9.36304688 14.59800781 -8.77734375 13.65039062 C-5.9249026 9.04743745 -3.04160167 4.48039854 0 0 Z " fill="#387DE1" transform="translate(618,776)"/>
<path d="M0 0 C0.66 1.32 1.32 2.64 2 4 C1.46890625 4.70125 0.9378125 5.4025 0.390625 6.125 C-3.24374934 11.00620349 -6.575847 15.70719684 -9.140625 21.23046875 C-10.48863624 24.00614645 -12.24091849 26.47132033 -14 29 C-14.66 29.99 -15.32 30.98 -16 32 C-17.33977809 34.00966714 -18.694152 36.00967563 -20.0625 38 C-22.02165114 40.90357981 -22.02165114 40.90357981 -23.375 43.8125 C-25.19579967 47.38406858 -27.34483602 50.59741777 -29.59375 53.91015625 C-30.60470609 55.41254933 -31.56831975 56.94719959 -32.5 58.5 C-33.90965252 60.84942087 -35.40476975 63.10457165 -36.9375 65.375 C-39.48110621 69.16842753 -41.78226005 73.00806809 -44 77 C-47.2401282 82.72422649 -50.60086854 88.36877222 -54 94 C-53.60167969 94.53109375 -53.20335937 95.0621875 -52.79296875 95.609375 C-50.1953125 99.07291667 -47.59765625 102.53645833 -45 106 C-45.99 106 -46.98 106 -48 106 C-50.26171875 103.59375 -50.26171875 103.59375 -52.6875 100.5 C-53.89986328 98.96859375 -53.89986328 98.96859375 -55.13671875 97.40625 C-55.75160156 96.6121875 -56.36648438 95.818125 -57 95 C-55.6380812 91.35072976 -53.99076631 88.11490014 -51.98046875 84.78125 C-51.07530518 83.27546387 -51.07530518 83.27546387 -50.15185547 81.73925781 C-49.50361816 80.67030273 -48.85538086 79.60134766 -48.1875 78.5 C-47.51605957 77.3872168 -46.84461914 76.27443359 -46.15283203 75.12792969 C-40.37125805 65.55726101 -34.49779733 56.04390884 -28.58837891 46.55175781 C-25.9081381 42.24590522 -23.23419766 37.93615768 -20.5625 33.625 C-20.03809326 32.77881104 -19.51368652 31.93262207 -18.97338867 31.06079102 C-12.58967505 20.74341346 -6.2935826 10.37251914 0 0 Z " fill="#357FE3" transform="translate(747,638)"/>
<path d="M0 0 C59.73 0 119.46 0 181 0 C174.25630252 7.86764706 174.25630252 7.86764706 171.375 10.6875 C170.50294922 11.54601562 170.50294922 11.54601562 169.61328125 12.421875 C168.81470703 13.20304687 168.81470703 13.20304687 168 14 C167.195625 14.804375 166.39125 15.60875 165.5625 16.4375 C165.046875 16.953125 164.53125 17.46875 164 18 C164.93346673 11.69909954 169.94856363 8.03352376 174.609375 4.234375 C175.06828125 3.82703125 175.5271875 3.4196875 176 3 C176 2.67 176 2.34 176 2 C117.92 1.67 59.84 1.34 0 1 C0 0.67 0 0.34 0 0 Z " fill="#36ADFE" transform="translate(776,361)"/>
<path d="M0 0 C2.79872437 2.52788007 4.45773019 4.20411134 5 8 C5.66 8 6.32 8 7 8 C7.33 9.65 7.66 11.3 8 13 C8.66 13 9.32 13 10 13 C10.83848804 14.45537568 11.67063934 15.91440373 12.5 17.375 C12.9640625 18.18710937 13.428125 18.99921875 13.90625 19.8359375 C15 22 15 22 15 24 C15.66 24.33 16.32 24.66 17 25 C18.02857382 26.57294436 19.00018399 28.18352586 19.9375 29.8125 C21.3937743 32.3339775 22.81428837 34.75423237 24.5703125 37.078125 C25.98199812 38.97580075 26.94893151 40.79489448 27.9375 42.9375 C29.19879999 45.55712306 30.32373241 47.39772839 32.1875 49.6875 C34.15169156 52.19353751 34.64257637 53.87254323 35 57 C35.66 57 36.32 57 37 57 C40 62.75 40 62.75 40 65 C40.66 65 41.32 65 42 65 C42 65.99 42 66.98 42 68 C42.99 68.495 42.99 68.495 44 69 C46 72 46 72 46 75 C46.66 75 47.32 75 48 75 C48.9765625 76.72526042 49.953125 78.45052083 50.9296875 80.17578125 C51.89428581 81.81982289 52.94267059 83.41400588 54 85 C54 85.99 54 86.98 54 88 C54.66 88 55.32 88 56 88 C56 88.99 56 89.98 56 91 C56.66 91 57.32 91 58 91 C58 91.99 58 92.98 58 94 C58.66 94 59.32 94 60 94 C59.505 95.98 59.505 95.98 59 98 C50.94907442 85.18819054 43.01896324 72.30274065 35.09667969 59.41113281 C32.39414389 55.01375991 29.68886813 50.61807429 26.9831543 46.22265625 C25.66614788 44.08250055 24.34989829 41.94187892 23.03442383 39.80078125 C19.90737817 34.71281174 16.77338036 29.62951176 13.61514282 24.56085205 C12.12103364 22.16202398 10.63080134 19.76079905 9.14086914 17.359375 C8.08532274 15.66170654 7.02416659 13.9675301 5.96289062 12.2734375 C5.32673828 11.24734375 4.69058594 10.22125 4.03515625 9.1640625 C3.19029663 7.80982178 3.19029663 7.80982178 2.32836914 6.42822266 C1.12864278 4.2351555 0.45185599 2.44236871 0 0 Z " fill="#02CDE8" transform="translate(325,564)"/>
<path d="M0 0 C41.25 0 82.5 0 125 0 C125 0.33 125 0.66 125 1 C124.16346107 1.00634791 124.16346107 1.00634791 123.31002235 1.01282406 C109.70379154 1.11638967 96.09761033 1.22512274 82.49146461 1.33933926 C75.91148106 1.3944203 69.33149295 1.44781595 62.75146484 1.49731445 C56.39720341 1.54517738 50.0429931 1.59752688 43.68879318 1.65294075 C41.26882583 1.67326533 38.84884451 1.69199411 36.42885208 1.70907402 C33.03015367 1.73333848 29.63154992 1.76336106 26.23291016 1.79467773 C25.24028168 1.8004332 24.2476532 1.80618866 23.22494507 1.81211853 C17.09896567 1.87595955 11.08422178 2.2820426 5 3 C5.77112657 6.3991331 6.96420902 8.84119678 8.8125 11.8125 C9.34617188 12.68519531 9.87984375 13.55789063 10.4296875 14.45703125 C11.39302067 16.01705585 12.35652276 17.57697618 13.3203125 19.13671875 C14.27209942 20.7241396 15.14500902 22.35841732 16 24 C15.67 24.66 15.34 25.32 15 26 C12.86844592 22.60823961 10.74593095 19.21091152 8.625 15.8125 C8.02171875 14.85279297 7.4184375 13.89308594 6.796875 12.90429688 C5.92675781 11.50727539 5.92675781 11.50727539 5.0390625 10.08203125 C4.50490723 9.22843018 3.97075195 8.3748291 3.42041016 7.49536133 C2 5 2 5 0 0 Z " fill="#00FCFE" transform="translate(201,363)"/>
<path d="M0 0 C0.66 1.32 1.32 2.64 2 4 C1.20335937 5.051875 1.20335937 5.051875 0.390625 6.125 C-3.24374934 11.00620349 -6.575847 15.70719684 -9.140625 21.23046875 C-10.48863624 24.00614645 -12.24091849 26.47132033 -14 29 C-17.10372979 33.60553452 -20.07637736 38.27906837 -23 43 C-23.99 42.67 -24.98 42.34 -26 42 C-25.63874023 41.43829102 -25.27748047 40.87658203 -24.90527344 40.29785156 C-16.36664287 27.00175279 -8.04444407 13.60096179 0 0 Z " fill="#2E85E1" transform="translate(747,638)"/>
<path d="M0 0 C0.66 0.33 1.32 0.66 2 1 C-5.37168371 13.35275883 -12.76214748 25.69289654 -20.3125 37.9375 C-20.85672607 38.82397217 -21.40095215 39.71044434 -21.96166992 40.6237793 C-22.46545166 41.43758057 -22.9692334 42.25138184 -23.48828125 43.08984375 C-23.92696533 43.80003662 -24.36564941 44.51022949 -24.81762695 45.24194336 C-26 47 -26 47 -28 49 C-29 46 -29 46 -28.07421875 43.95703125 C-27.61660156 43.24933594 -27.15898438 42.54164063 -26.6875 41.8125 C-26.01267578 40.73935547 -26.01267578 40.73935547 -25.32421875 39.64453125 C-24.88722656 39.10183594 -24.45023438 38.55914063 -24 38 C-23.34 38 -22.68 38 -22 38 C-21.896875 37.278125 -21.79375 36.55625 -21.6875 35.8125 C-20.93206053 32.72206579 -19.84468685 30.58256159 -18 28 C-17.34 28 -16.68 28 -16 28 C-16 27.01 -16 26.02 -16 25 C-15.34 25 -14.68 25 -14 25 C-13.67 23.35 -13.34 21.7 -13 20 C-12.34 20 -11.68 20 -11 20 C-10.67 18.35 -10.34 16.7 -10 15 C-9.34 15 -8.68 15 -8 15 C-7.896875 14.278125 -7.79375 13.55625 -7.6875 12.8125 C-6.93206053 9.72206579 -5.84468685 7.58256159 -4 5 C-3.34 5 -2.68 5 -2 5 C-2 4.01 -2 3.02 -2 2 C-1.34 2 -0.68 2 0 2 C0 1.34 0 0.68 0 0 Z " fill="#3980E5" transform="translate(699,644)"/>
<path d="M0 0 C0.66 0.33 1.32 0.66 2 1 C1.63390625 1.50144531 1.2678125 2.00289062 0.890625 2.51953125 C-8.85987836 16.14702047 -17.46945047 30.58854132 -26 45 C-26.66 44.01 -27.32 43.02 -28 42 C-27.56042969 41.61199219 -27.12085938 41.22398437 -26.66796875 40.82421875 C-24.6807411 38.65083395 -23.58630548 36.46339249 -22.3125 33.8125 C-21.87550781 32.91144531 -21.43851563 32.01039063 -20.98828125 31.08203125 C-20.66214844 30.39496094 -20.33601562 29.70789063 -20 29 C-19.34 29 -18.68 29 -18 29 C-17.566875 27.3603125 -17.566875 27.3603125 -17.125 25.6875 C-16 22 -16 22 -14 19 C-13.34 19 -12.68 19 -12 19 C-11.34 17.02 -10.68 15.04 -10 13 C-9.34 13 -8.68 13 -8 13 C-8 12.01 -8 11.02 -8 10 C-7.34 10 -6.68 10 -6 10 C-6 9.01 -6 8.02 -6 7 C-5.34 7 -4.68 7 -4 7 C-3.71125 6.401875 -3.4225 5.80375 -3.125 5.1875 C-2 3 -2 3 0 0 Z " fill="#3A81E5" transform="translate(728,599)"/>
<path d="M0 0 C4.04131267 1.34710422 4.90288434 3.38428334 7 7 C7 7.99 7 8.98 7 10 C7.66 10 8.32 10 9 10 C9.33 11.65 9.66 13.3 10 15 C10.99 15.33 11.98 15.66 13 16 C14.64820195 18.60242414 15 19.86248779 15 23 C15.66 23 16.32 23 17 23 C17.33 24.65 17.66 26.3 18 28 C19.32 28 20.64 28 22 28 C22.66 27.01 23.32 26.02 24 25 C24.66 25.33 25.32 25.66 26 26 C24.35 28.31 22.7 30.62 21 33 C16.90810463 29.39797943 14.39232641 25.06514572 11.625 20.4375 C11.14184326 19.63844238 10.65868652 18.83938477 10.16088867 18.01611328 C6.60389881 12.09914576 3.19538161 6.12111076 0 0 Z " fill="#3481E5" transform="translate(516,877)"/>
<path d="M0 0 C4.38539481 3.98385956 7.20674081 8.28153765 10.1875 13.375 C14.25630429 20.20090391 18.4857348 26.86525617 23.00268555 33.40380859 C26 37.79367253 26 37.79367253 26 40 C25.01 40 24.02 40 23 40 C22.87625 39.360625 22.7525 38.72125 22.625 38.0625 C22.41875 37.381875 22.2125 36.70125 22 36 C21.34 35.67 20.68 35.34 20 35 C19.375 32.4375 19.375 32.4375 19 30 C18.34 30 17.68 30 17 30 C14.95830515 27.09451118 14 25.59857954 14 22 C13.34 22 12.68 22 12 22 C12 21.01 12 20.02 12 19 C11.34 19 10.68 19 10 19 C7.81673892 14.72886302 5.68673918 10.49797113 4 6 C3.34 6 2.68 6 2 6 C2 5.01 2 4.02 2 3 C1.34 3 0.68 3 0 3 C0 2.01 0 1.02 0 0 Z " fill="#09B9E2" transform="translate(459,527)"/>
<path d="M0 0 C3.84648389 4.4677687 6.71396287 9.37396111 9.6875 14.4375 C14.09610746 21.89911069 18.67111549 29.18570354 23.55078125 36.34765625 C24.02902344 37.22292969 24.50726563 38.09820312 25 39 C24.67 39.99 24.34 40.98 24 42 C20.58802511 36.65205843 17.18065851 31.30125226 13.78125 25.9453125 C11.48367094 22.32604529 9.17357263 18.71577013 6.84375 15.1171875 C5.93734084 13.70322702 5.03107989 12.28917151 4.125 10.875 C3.70299316 10.23175781 3.28098633 9.58851563 2.84619141 8.92578125 C0.70702941 5.56411131 0 4.10755706 0 0 Z " fill="#01D7E2" transform="translate(240,425)"/>
<path d="M0 0 C1.92511974 0.01507419 3.85025089 0.02875775 5.77539062 0.04101562 C10.45471284 0.07380434 15.13347826 0.12543557 19.8125 0.1875 C19.4825 0.8475 19.1525 1.5075 18.8125 2.1875 C17.98226318 2.17702637 17.15202637 2.16655273 16.29663086 2.15576172 C-6.73813589 1.21100113 -6.73813589 1.21100113 -29.1875 5.1875 C-29.8475 5.8475 -30.5075 6.5075 -31.1875 7.1875 C-31.8475 6.5275 -32.5075 5.8675 -33.1875 5.1875 C-32.1875 3.1875 -32.1875 3.1875 -30.4284668 2.3425293 C-20.46680847 -0.74455478 -10.30971003 -0.14088903 0 0 Z " fill="#398FF2" transform="translate(857.1875,562.8125)"/>
<path d="M0 0 C0.99 0.33 1.98 0.66 3 1 C2.37339478 1.61875 2.37339478 1.61875 1.73413086 2.25 C-8.18766669 11.98069042 -8.18766669 11.98069042 -17.50390625 22.28125 C-20.17190034 25.34630848 -23.08849062 28.16813678 -26 31 C-26.33 30.01 -26.66 29.02 -27 28 C-24.06615153 23.94438593 -20.95872654 21.06801307 -17 18 C-14.50312891 15.6249275 -12.22663293 13.29462281 -10.125 10.5625 C-7.81082562 7.77187796 -5.29472177 5.60963501 -2.48828125 3.33203125 C-0.87117455 2.04920055 -0.87117455 2.04920055 0 0 Z " fill="#4080E7" transform="translate(800,520)"/>
<path d="M0 0 C1.5 1.375 1.5 1.375 3 3 C3 3.66 3 4.32 3 5 C3.66 5 4.32 5 5 5 C5 5.99 5 6.98 5 8 C5.66 8.33 6.32 8.66 7 9 C9 12 9 12 9 15 C9.66 15 10.32 15 11 15 C11.9765625 16.72526042 12.953125 18.45052083 13.9296875 20.17578125 C14.89428581 21.81982289 15.94267059 23.41400588 17 25 C17 25.99 17 26.98 17 28 C17.66 28 18.32 28 19 28 C19 28.99 19 29.98 19 31 C19.66 31 20.32 31 21 31 C21 31.99 21 32.98 21 34 C21.66 34 22.32 34 23 34 C22.67 35.32 22.34 36.64 22 38 C21.12601562 36.59814453 21.12601562 36.59814453 20.234375 35.16796875 C19.84427246 34.54301514 19.45416992 33.91806152 19.05224609 33.27416992 C18.17421672 31.86724884 17.29695451 30.45984872 16.42041016 29.05200195 C13.86363271 24.95320441 11.28146615 20.87288967 8.6640625 16.8125 C8.1165332 15.95889893 7.56900391 15.10529785 7.00488281 14.22583008 C5.92898495 12.55025936 4.84770277 10.87813225 3.76074219 9.2097168 C3.26993164 8.44312744 2.77912109 7.67653809 2.2734375 6.88671875 C1.83435059 6.20826904 1.39526367 5.52981934 0.94287109 4.83081055 C0 3 0 3 0 0 Z " fill="#05BEE5" transform="translate(362,624)"/>
<path d="M0 0 C0.66 0.33 1.32 0.66 2 1 C-0.3085786 4.8244247 -2.6198938 8.6471784 -4.93359375 12.46850586 C-5.71784888 13.76461603 -6.50139658 15.06115457 -7.28417969 16.3581543 C-11.70226221 23.67736901 -16.15809534 30.94981817 -21 38 C-21.33 37.34 -21.66 36.68 -22 36 C-19.10437361 29.27467419 -14.87845902 23.28181682 -10.61328125 17.37109375 C-8.35988552 14.0592022 -6.68121389 10.63142201 -5 7 C-4.34 7 -3.68 7 -3 7 C-2.690625 6.21625 -2.38125 5.4325 -2.0625 4.625 C-1 2 -1 2 0 0 Z " fill="#3A80E6" transform="translate(653,719)"/>
<path d="M0 0 C3.05115728 2.84874635 5.23056301 5.71068628 7.3828125 9.28125 C8.29740234 10.79138672 8.29740234 10.79138672 9.23046875 12.33203125 C9.85566406 13.37746094 10.48085938 14.42289062 11.125 15.5 C11.75792969 16.54542969 12.39085937 17.59085937 13.04296875 18.66796875 C18.08551508 27.02938846 18.08551508 27.02938846 20 31 C18.1875 30.9375 18.1875 30.9375 16 30 C14.38593331 26.77186661 13.18424946 23.52971718 12 20.125 C11.67 19.42375 11.34 18.7225 11 18 C10.01 17.67 9.02 17.34 8 17 C6.96514123 14.68191636 5.9644586 12.34824702 5 10 C4.34 9.67 3.68 9.34 3 9 C2.1484375 6.93359375 2.1484375 6.93359375 1.375 4.4375 C1.11460937 3.61121094 0.85421875 2.78492188 0.5859375 1.93359375 C0.39257812 1.29550781 0.19921875 0.65742188 0 0 Z " fill="#001B34" transform="translate(257,457)"/>
<path d="M0 0 C0.66 0 1.32 0 2 0 C0.51346494 3.46629835 -1.45722351 5.69022036 -4.1328125 8.328125 C-5.34130859 9.52695312 -5.34130859 9.52695312 -6.57421875 10.75 C-7.41597656 11.575 -8.25773438 12.4 -9.125 13.25 C-9.97449219 14.09046875 -10.82398438 14.9309375 -11.69921875 15.796875 C-13.79504923 17.86915683 -15.89540713 19.93662393 -18 22 C-18.66 21.34 -19.32 20.68 -20 20 C-17.38308836 17.32529045 -14.75518292 14.66165519 -12.125 12 C-11.00544922 10.8553125 -11.00544922 10.8553125 -9.86328125 9.6875 C-9.14785156 8.965625 -8.43242188 8.24375 -7.6953125 7.5 C-7.03547363 6.8296875 -6.37563477 6.159375 -5.69580078 5.46875 C-4 4 -4 4 -2 4 C-2 3.34 -2 2.68 -2 2 C-1.34 2 -0.68 2 0 2 C0 1.34 0 0.68 0 0 Z " fill="#3E80EA" transform="translate(905,412)"/>
<path d="M0 0 C4.95 0 9.9 0 15 0 C15 0.33 15 0.66 15 1 C11.7 1.33 8.4 1.66 5 2 C5.91300561 5.65202245 6.86564118 7.68273962 8.8125 10.8125 C9.34617188 11.68519531 9.87984375 12.55789063 10.4296875 13.45703125 C11.39302067 15.01705585 12.35652276 16.57697618 13.3203125 18.13671875 C14.27209942 19.7241396 15.14500902 21.35841732 16 23 C15.67 23.66 15.34 24.32 15 25 C12.87216616 21.58509055 10.74823013 18.16777339 8.625 14.75 C8.02171875 13.78191406 7.4184375 12.81382812 6.796875 11.81640625 C6.21679688 10.88183594 5.63671875 9.94726562 5.0390625 8.984375 C4.23782959 7.69611816 4.23782959 7.69611816 3.42041016 6.38183594 C2.18421505 4.30890375 1.07937261 2.15874522 0 0 Z " fill="#01E0E6" transform="translate(201,364)"/>
<path d="M0 0 C0.66 0.33 1.32 0.66 2 1 C-3.92941176 8.24705882 -3.92941176 8.24705882 -7 11 C-7.66 11 -8.32 11 -9 11 C-9.66 12.32 -10.32 13.64 -11 15 C-11.66 15 -12.32 15 -13 15 C-13.268125 15.639375 -13.53625 16.27875 -13.8125 16.9375 C-15 19 -15 19 -18 20 C-16.5735422 16.7413364 -14.83295838 14.5975146 -12.3046875 12.109375 C-11.23154297 11.04589844 -11.23154297 11.04589844 -10.13671875 9.9609375 C-9.39035156 9.23132813 -8.64398437 8.50171875 -7.875 7.75 C-7.12089844 7.00492187 -6.36679687 6.25984375 -5.58984375 5.4921875 C-3.73099228 3.6568658 -1.86762995 1.8263809 0 0 Z " fill="#010824" transform="translate(822,501)"/>
<path d="M0 0 C-1.39347376 3.15204981 -3.02485079 5.26171773 -5.4765625 7.671875 C-6.48203125 8.66767578 -6.48203125 8.66767578 -7.5078125 9.68359375 C-8.20648437 10.36550781 -8.90515625 11.04742187 -9.625 11.75 C-10.33140625 12.44738281 -11.0378125 13.14476562 -11.765625 13.86328125 C-13.50598703 15.58012488 -15.25084981 17.29211832 -17 19 C-17 15.07290865 -15.72099538 14.1810287 -13.125 11.3125 C-12.40570312 10.50425781 -11.68640625 9.69601562 -10.9453125 8.86328125 C-9 7 -9 7 -7 7 C-6.731875 6.401875 -6.46375 5.80375 -6.1875 5.1875 C-3.37142857 0 -3.37142857 0 0 0 Z " fill="#3E80E6" transform="translate(875,445)"/>
<path d="M0 0 C0.66 0.33 1.32 0.66 2 1 C-2.04883346 5.82745528 -6.14200012 9.96889371 -11 14 C-13.08214631 16.26796715 -15.05851915 18.6110147 -17 21 C-17.33 20.01 -17.66 19.02 -18 18 C-12.06 12.06 -6.12 6.12 0 0 Z " fill="#020827" transform="translate(785,539)"/>
<path d="M0 0 C4.60037406 4.1622432 7.66850452 8.84022041 10.875 14.125 C11.38546875 14.93582031 11.8959375 15.74664063 12.421875 16.58203125 C12.89882813 17.36191406 13.37578125 18.14179687 13.8671875 18.9453125 C14.30144043 19.65187988 14.73569336 20.35844727 15.18310547 21.08642578 C16 23 16 23 15 26 C13.99466333 24.37829621 12.99588093 22.75252763 12 21.125 C11.443125 20.22007812 10.88625 19.31515625 10.3125 18.3828125 C9 16 9 16 9 14 C8.34 14 7.68 14 7 14 C6.34 12.02 5.68 10.04 5 8 C4.34 8 3.68 8 3 8 C2.67 6.35 2.34 4.7 2 3 C1.34 3 0.68 3 0 3 C0 2.01 0 1.02 0 0 Z " fill="#04C5E6" transform="translate(442,500)"/>
<path d="M0 0 C0.6875 1.625 0.6875 1.625 1 4 C0.01 5.98 -0.98 7.96 -2 10 C0.97 13.3 3.94 16.6 7 20 C6.34 20.66 5.68 21.32 5 22 C1.7 18.04 -1.6 14.08 -5 10 C-3.51799926 6.29499816 -2.091496 3.32738 0 0 Z " fill="#306FD5" transform="translate(695,723)"/>
<path d="M0 0 C7.15801225 5.82628904 13.52591766 12.4382985 20 19 C19.34 19.66 18.68 20.32 18 21 C17.443125 20.278125 16.88625 19.55625 16.3125 18.8125 C12.98059356 14.76018135 9.37779733 11.29778269 5.3125 8 C2.46606763 5.61147197 0.97404672 3.67973205 0 0 Z " fill="#5A5CE9" transform="translate(855,732)"/>
<path d="M0 0 C0.99 0.33 1.98 0.66 3 1 C-1.62 5.62 -6.24 10.24 -11 15 C-11.33 14.01 -11.66 13.02 -12 12 C-11.55269531 11.63648438 -11.10539063 11.27296875 -10.64453125 10.8984375 C-6.61206348 7.5452127 -3.23995546 4.12357967 0 0 Z " fill="#3E81EA" transform="translate(925,391)"/>
<path d="M0 0 C0.99 0.33 1.98 0.66 3 1 C-1.59474404 6.39882424 -6.27676273 11.71333087 -11 17 C-11.33 16.01 -11.66 15.02 -12 14 C-8.96507052 9.73213042 -5.44606701 6.54144335 -1.35546875 3.296875 C-0.90816406 2.86890625 -0.46085938 2.4409375 0 2 C0 1.34 0 0.68 0 0 Z " fill="#3C7EE7" transform="translate(952,362)"/>
<path d="M0 0 C0.66 0.33 1.32 0.66 2 1 C-1.63 4.96 -5.26 8.92 -9 13 C-9.99 12.67 -10.98 12.34 -12 12 C-8.04 8.04 -4.08 4.08 0 0 Z " fill="#010825" transform="translate(943,376)"/>
<path d="M0 0 C0.66 0.33 1.32 0.66 2 1 C0.73147606 2.60599349 -0.539911 4.20972575 -1.8125 5.8125 C-2.87404297 7.15248047 -2.87404297 7.15248047 -3.95703125 8.51953125 C-5.56411377 10.47076911 -7.17040423 12.26274976 -9 14 C-9.33 13.01 -9.66 12.02 -10 11 C-9.34 11 -8.68 11 -8 11 C-8 10.34 -8 9.68 -8 9 C-7.34 9 -6.68 9 -6 9 C-5.566875 8.13375 -5.566875 8.13375 -5.125 7.25 C-4.568125 6.13625 -4.568125 6.13625 -4 5 C-3.67 4.278125 -3.34 3.55625 -3 2.8125 C-2 1 -2 1 0 0 Z " fill="#3C7EE5" transform="translate(739,585)"/>
<path d="M0 0 C1.30324219 0.13341797 1.30324219 0.13341797 2.6328125 0.26953125 C3.49648438 0.34558594 4.36015625 0.42164063 5.25 0.5 C8.06129591 1.15246587 9.59130372 2.21278762 11.7578125 4.08203125 C5.96882831 4.28878069 1.32848527 3.67365204 -4.2421875 2.08203125 C-2.2421875 0.08203125 -2.2421875 0.08203125 0 0 Z " fill="#5643DA" transform="translate(854.2421875,895.91796875)"/>
<path d="M0 0 C1.875 0.3203125 1.875 0.3203125 4 1 C5.3726682 2.97321053 6.70427617 4.97543152 8 7 C10.10575643 8.83300909 10.10575643 8.83300909 12 10 C11.67 10.99 11.34 11.98 11 13 C6.78185183 9.0299782 3.38772897 4.69159716 0 0 Z " fill="#3E74E5" transform="translate(710,755)"/>
<path d="M0 0 C1 3 1 3 0.3125 5.375 C-1.13504273 8.27008545 -2.8982393 10.54794585 -5 13 C-5.66 12.67 -6.32 12.34 -7 12 C-4.69 8.04 -2.38 4.08 0 0 Z " fill="#1A94DE" transform="translate(618,538)"/>
<path d="M0 0 C8.57142857 0.71428571 8.57142857 0.71428571 12 4 C8.35839192 5.21386936 7.66834531 4.6674695 4.3125 3.0625 C3.10013672 2.49208984 3.10013672 2.49208984 1.86328125 1.91015625 C1.24839844 1.60980469 0.63351562 1.30945313 0 1 C0 0.67 0 0.34 0 0 Z " fill="#5546D9" transform="translate(835,891)"/>
<path d="M0 0 C3.68006822 3.38168431 5.9785845 6.42521756 8 11 C7.01 11 6.02 11 5 11 C3.61328125 9.35546875 3.61328125 9.35546875 2.3125 7.1875 C1.87550781 6.47980469 1.43851562 5.77210938 0.98828125 5.04296875 C0 3 0 3 0 0 Z " fill="#09ABDE" transform="translate(485,568)"/>
<path d="M0 0 C0.66 0 1.32 0 2 0 C0.61811547 3.21043882 -0.92421903 5.04936365 -3.625 7.25 C-4.57246094 8.03117187 -4.57246094 8.03117187 -5.5390625 8.828125 C-6.02117188 9.21484375 -6.50328125 9.6015625 -7 10 C-6.62890625 8.078125 -6.62890625 8.078125 -6 6 C-3.9375 4.75 -3.9375 4.75 -2 4 C-2 3.34 -2 2.68 -2 2 C-1.34 2 -0.68 2 0 2 C0 1.34 0 0.68 0 0 Z " fill="#3A78DC" transform="translate(905,412)"/>
<path d="M0 0 C1.60407328 -0.02708567 3.2082785 -0.04643483 4.8125 -0.0625 C5.70582031 -0.07410156 6.59914063 -0.08570313 7.51953125 -0.09765625 C10 0 10 0 13 1 C13.33 1.99 13.66 2.98 14 4 C9.38 3.01 4.76 2.02 0 1 C0 0.67 0 0.34 0 0 Z " fill="#013140" transform="translate(330,362)"/>
<path d="M0 0 C3.63 0 7.26 0 11 0 C10.67 0.66 10.34 1.32 10 2 C2.58823529 3.29411765 2.58823529 3.29411765 0 2 C0 1.34 0 0.68 0 0 Z " fill="#3884DF" transform="translate(836,563)"/>
<path d="M0 0 C0.99 0.33 1.98 0.66 3 1 C0.36 3.64 -2.28 6.28 -5 9 C-5.33 8.01 -5.66 7.02 -6 6 C-5.34 6 -4.68 6 -4 6 C-3.71125 5.38125 -3.4225 4.7625 -3.125 4.125 C-2 2 -2 2 0 0 Z " fill="#3D7ADF" transform="translate(841,478)"/>
<path d="M0 0 C2.39489543 0.74324341 3.70777616 1.47057354 4.93359375 3.69140625 C5.67219923 5.44073501 6.34049685 7.21934149 7 9 C6.01 9.495 6.01 9.495 5 10 C4.16121545 8.71186658 3.32913217 7.41936744 2.5 6.125 C2.0359375 5.40570312 1.571875 4.68640625 1.09375 3.9453125 C0 2 0 2 0 0 Z " fill="#2884DE" transform="translate(502,854)"/>
<path d="M0 0 C3.45195767 1.4258086 5.1014256 3.09746334 7.25 6.125 C8.03117188 7.21167969 8.03117188 7.21167969 8.828125 8.3203125 C9.40820312 9.15175781 9.40820312 9.15175781 10 10 C6.67697814 8.43622501 4.43815993 6.78646849 2 4 C2 3.34 2 2.68 2 2 C1.34 2 0.68 2 0 2 C0 1.34 0 0.68 0 0 Z " fill="#653CE5" transform="translate(973,852)"/>
<path d="M0 0 C4.04648443 1.34882814 4.95502599 3.34826069 7 7 C6.67 7.99 6.34 8.98 6 10 C3.25722422 6.80009492 1.3697164 3.99500618 0 0 Z " fill="#2787DF" transform="translate(494,841)"/>
<path d="M0 0 C3.59634744 3.49359465 6.83451967 7.11098131 10 11 C9.01 11 8.02 11 7 11 C5.17578125 9.1015625 5.17578125 9.1015625 3.3125 6.625 C2.68988281 5.81289063 2.06726563 5.00078125 1.42578125 4.1640625 C0 2 0 2 0 0 Z " fill="#3977E0" transform="translate(692,733)"/>
<path d="M0 0 C-1.4638611 4.39158329 -3.97831338 4.87947433 -8 7 C-8.66 6.34 -9.32 5.68 -10 5 C-8.71186658 4.16121545 -7.41936744 3.32913217 -6.125 2.5 C-5.40570312 2.0359375 -4.68640625 1.571875 -3.9453125 1.09375 C-2 0 -2 0 0 0 Z " fill="#2991E1" transform="translate(810,573)"/>
<path d="M0 0 C3.7952131 1.49097658 5.61042731 3.75700849 8 7 C5 7 5 7 2.3125 4.625 C0 2 0 2 0 0 Z " fill="#100F42" transform="translate(920,796)"/>
<path d="M0 0 C1.32 0.33 2.64 0.66 4 1 C4 1.66 4 2.32 4 3 C5.45833358 4.62514468 5.45833358 4.62514468 7 6 C6.01 7.485 6.01 7.485 5 9 C3.35 6.03 1.7 3.06 0 0 Z " fill="#01C2DA" transform="translate(319,556)"/>
<path d="M0 0 C2.33524782 2.25740623 4.18705073 4.2805761 6 7 C5.625 9.1875 5.625 9.1875 5 11 C4.15841464 9.73461631 3.32700252 8.46246221 2.5 7.1875 C1.80390625 6.12595703 1.80390625 6.12595703 1.09375 5.04296875 C0 3 0 3 0 0 Z " fill="#011C33" transform="translate(464,531)"/>
<path d="M0 0 C2.93200474 2.85276137 5.64315404 5.65079784 8 9 C7.01 9 6.02 9 5 9 C0 3.76744186 0 3.76744186 0 0 Z " fill="#090F3E" transform="translate(744,795)"/>
<path d="M0 0 C1.45792884 -0.05399736 2.91642712 -0.09279177 4.375 -0.125 C5.18710937 -0.14820313 5.99921875 -0.17140625 6.8359375 -0.1953125 C9 0 9 0 11 2 C6.70700357 3.26264601 4.12168689 2.62950412 0 1 C0 0.67 0 0.34 0 0 Z " fill="#00ECF2" transform="translate(326,363)"/>
<path d="M0 0 C0.66 0.66 1.32 1.32 2 2 C-0.31 4.31 -2.62 6.62 -5 9 C-5 4.61031544 -2.87194899 3.23094261 0 0 Z " fill="#6065F1" transform="translate(876,679)"/>
<path d="M0 0 C0.99 0.33 1.98 0.66 3 1 C-0.465 3.97 -0.465 3.97 -4 7 C-3.04065919 3.16263678 -2.76390737 2.40339772 0 0 Z " fill="#356ECD" transform="translate(784,537)"/>
<path d="M0 0 C3.2542015 2.83430453 4.5206753 4.68607774 5 9 C4.67 8.34 4.34 7.68 4 7 C3.01 6.67 2.02 6.34 1 6 C0.67 4.02 0.34 2.04 0 0 Z " fill="#010A24" transform="translate(455,780)"/>
<path d="M0 0 C0.6875 1.8125 0.6875 1.8125 1 4 C-0.4375 5.75 -0.4375 5.75 -2 7 C-2.99 6.67 -3.98 6.34 -5 6 C-3.35 4.02 -1.7 2.04 0 0 Z " fill="#238ADD" transform="translate(763,615)"/>
<path d="M0 0 C-2.97 0.66 -5.94 1.32 -9 2 C-9 1.34 -9 0.68 -9 0 C-4.5 -2.25 -4.5 -2.25 0 0 Z " fill="#081B3A" transform="translate(828,566)"/>
</svg>
